<svg width="193" height="39" viewBox="0 0 193 39" fill="none" xmlns="http://www.w3.org/2000/svg">
<rect width="193" height="39" rx="19.5" fill="#2237F1"/>
<path d="M31.992 28.336C29.992 28.336 28.4 27.76 27.216 26.608C26.032 25.44 25.44 23.744 25.44 21.52V17.68C25.44 15.456 26.032 13.768 27.216 12.616C28.4 11.448 29.992 10.864 31.992 10.864C33.976 10.864 35.496 11.416 36.552 12.52C37.624 13.624 38.16 15.136 38.16 17.056V17.176H36.168V16.984C36.168 15.72 35.824 14.688 35.136 13.888C34.464 13.072 33.416 12.664 31.992 12.664C30.568 12.664 29.456 13.104 28.656 13.984C27.856 14.848 27.456 16.064 27.456 17.632V21.568C27.456 23.136 27.856 24.36 28.656 25.24C29.456 26.104 30.568 26.536 31.992 26.536C33.416 26.536 34.464 26.136 35.136 25.336C35.824 24.52 36.168 23.48 36.168 22.216V21.832H38.16V22.144C38.16 24.064 37.624 25.576 36.552 26.68C35.496 27.784 33.976 28.336 31.992 28.336ZM48.8144 28.336C47.6304 28.336 46.5824 28.088 45.6704 27.592C44.7744 27.096 44.0704 26.4 43.5584 25.504C43.0624 24.592 42.8144 23.52 42.8144 22.288V21.976C42.8144 20.76 43.0624 19.696 43.5584 18.784C44.0704 17.872 44.7744 17.168 45.6704 16.672C46.5824 16.176 47.6304 15.928 48.8144 15.928C49.9984 15.928 51.0384 16.176 51.9344 16.672C52.8464 17.168 53.5504 17.872 54.0464 18.784C54.5584 19.696 54.8144 20.76 54.8144 21.976V22.288C54.8144 23.52 54.5584 24.592 54.0464 25.504C53.5504 26.4 52.8464 27.096 51.9344 27.592C51.0384 28.088 49.9984 28.336 48.8144 28.336ZM48.8144 26.632C50.0624 26.632 51.0544 26.24 51.7904 25.456C52.5424 24.656 52.9184 23.584 52.9184 22.24V22.024C52.9184 20.68 52.5424 19.616 51.7904 18.832C51.0544 18.032 50.0624 17.632 48.8144 17.632C47.5824 17.632 46.5904 18.032 45.8384 18.832C45.0864 19.616 44.7104 20.68 44.7104 22.024V22.24C44.7104 23.584 45.0864 24.656 45.8384 25.456C46.5904 26.24 47.5824 26.632 48.8144 26.632ZM60.2264 28L60.2264 16.264H62.0744V18.256H62.4104C62.6664 17.696 63.0984 17.192 63.7064 16.744C64.3304 16.28 65.2424 16.048 66.4424 16.048C67.3224 16.048 68.1064 16.232 68.7944 16.6C69.4984 16.968 70.0584 17.512 70.4744 18.232C70.8904 18.952 71.0984 19.84 71.0984 20.896V28H69.2024V21.04C69.2024 19.872 68.9064 19.024 68.3144 18.496C67.7384 17.968 66.9544 17.704 65.9624 17.704C64.8264 17.704 63.8984 18.072 63.1784 18.808C62.4744 19.544 62.1224 20.64 62.1224 22.096L62.1224 28H60.2264ZM80.937 28C80.265 28 79.745 27.816 79.377 27.448C79.025 27.08 78.849 26.576 78.849 25.936V17.92H75.321V16.264H78.849V12.088H80.745V16.264H84.585V17.92H80.745V25.648C80.745 26.128 80.977 26.368 81.441 26.368H84.057V28H80.937ZM89.6561 28V16.264H91.5041V17.704H91.8401C92.0481 17.192 92.3681 16.816 92.8001 16.576C93.2321 16.336 93.8001 16.216 94.5041 16.216L95.8961 16.216V17.944L94.3841 17.944C93.5361 17.944 92.8481 18.184 92.3201 18.664C91.8081 19.128 91.5521 19.856 91.5521 20.848V28H89.6561ZM103.905 28.336C103.089 28.336 102.345 28.192 101.673 27.904C101.001 27.616 100.473 27.2 100.089 26.656C99.7045 26.112 99.5125 25.448 99.5125 24.664C99.5125 23.864 99.7045 23.208 100.089 22.696C100.473 22.168 101.001 21.776 101.673 21.52C102.345 21.248 103.097 21.112 103.929 21.112H107.889V20.248C107.889 19.416 107.641 18.76 107.145 18.28C106.665 17.8 105.945 17.56 104.985 17.56C104.041 17.56 103.305 17.792 102.777 18.256C102.249 18.704 101.889 19.312 101.697 20.08L99.9205 19.504C100.113 18.848 100.417 18.256 100.833 17.728C101.249 17.184 101.801 16.752 102.489 16.432C103.193 16.096 104.033 15.928 105.009 15.928C106.513 15.928 107.681 16.32 108.513 17.104C109.345 17.872 109.761 18.96 109.761 20.368V25.672C109.761 26.152 109.985 26.392 110.432 26.392H111.513V28H109.857C109.329 28 108.905 27.856 108.585 27.568C108.265 27.264 108.105 26.864 108.105 26.368V26.248H107.817C107.641 26.552 107.401 26.872 107.097 27.208C106.809 27.528 106.409 27.792 105.897 28C105.385 28.224 104.721 28.336 103.905 28.336ZM104.121 26.704C105.241 26.704 106.145 26.376 106.833 25.72C107.537 25.048 107.889 24.112 107.889 22.912V22.648H104.001C103.249 22.648 102.625 22.816 102.129 23.152C101.649 23.472 101.409 23.96 101.409 24.616C101.409 25.272 101.657 25.784 102.153 26.152C102.665 26.52 103.321 26.704 104.121 26.704ZM121.181 28.336C120.045 28.336 119.021 28.096 118.109 27.616C117.213 27.12 116.501 26.416 115.973 25.504C115.461 24.592 115.205 23.512 115.205 22.264V22C115.205 20.736 115.461 19.656 115.973 18.76C116.501 17.848 117.213 17.152 118.109 16.672C119.021 16.176 120.045 15.928 121.181 15.928C122.301 15.928 123.253 16.136 124.037 16.552C124.837 16.968 125.461 17.52 125.909 18.208C126.373 18.896 126.669 19.632 126.797 20.416L124.949 20.8C124.869 20.224 124.677 19.696 124.373 19.216C124.085 18.736 123.677 18.352 123.149 18.064C122.621 17.776 121.973 17.632 121.205 17.632C120.421 17.632 119.717 17.808 119.093 18.16C118.485 18.512 117.997 19.016 117.629 19.672C117.277 20.328 117.101 21.112 117.101 22.024V22.24C117.101 23.152 117.277 23.936 117.629 24.592C117.997 25.248 118.485 25.752 119.093 26.104C119.717 26.456 120.421 26.632 121.205 26.632C122.373 26.632 123.261 26.328 123.869 25.72C124.493 25.112 124.877 24.36 125.021 23.464L126.893 23.872C126.717 24.64 126.397 25.368 125.933 26.056C125.469 26.744 124.837 27.296 124.037 27.712C123.253 28.128 122.301 28.336 121.181 28.336ZM135.953 28C135.281 28 134.761 27.816 134.393 27.448C134.041 27.08 133.865 26.576 133.865 25.936V17.92H130.337V16.264H133.865V12.088H135.761V16.264H139.601V17.92H135.761V25.648C135.761 26.128 135.993 26.368 136.457 26.368H139.073V28H135.953ZM149.674 28.336C148.49 28.336 147.442 28.088 146.53 27.592C145.634 27.096 144.93 26.4 144.418 25.504C143.922 24.592 143.674 23.52 143.674 22.288V21.976C143.674 20.76 143.922 19.696 144.418 18.784C144.93 17.872 145.634 17.168 146.53 16.672C147.442 16.176 148.49 15.928 149.674 15.928C150.858 15.928 151.898 16.176 152.794 16.672C153.706 17.168 154.41 17.872 154.906 18.784C155.418 19.696 155.674 20.76 155.674 21.976V22.288C155.674 23.52 155.418 24.592 154.906 25.504C154.41 26.4 153.706 27.096 152.794 27.592C151.898 28.088 150.858 28.336 149.674 28.336ZM149.674 26.632C150.922 26.632 151.914 26.24 152.65 25.456C153.402 24.656 153.778 23.584 153.778 22.24V22.024C153.778 20.68 153.402 19.616 152.65 18.832C151.914 18.032 150.922 17.632 149.674 17.632C148.442 17.632 147.45 18.032 146.698 18.832C145.946 19.616 145.57 20.68 145.57 22.024V22.24C145.57 23.584 145.946 24.656 146.698 25.456C147.45 26.24 148.442 26.632 149.674 26.632ZM161.086 28V16.264H162.934V17.704H163.27C163.478 17.192 163.798 16.816 164.23 16.576C164.662 16.336 165.23 16.216 165.934 16.216H167.326V17.944H165.814C164.966 17.944 164.278 18.184 163.75 18.664C163.238 19.128 162.982 19.856 162.982 20.848V28H161.086Z" fill="white"/>
</svg>
