<svg width="425" height="123" viewBox="0 0 425 123" fill="none" xmlns="http://www.w3.org/2000/svg">
<rect width="425" height="123" rx="32" fill="#0055FF"/>
<path d="M63.145 84.91C57.7283 84.91 53.4167 83.35 50.21 80.23C47.0033 77.0667 45.4 72.4733 45.4 66.45V56.05C45.4 50.0267 47.0033 45.455 50.21 42.335C53.4167 39.1717 57.7283 37.59 63.145 37.59C68.5183 37.59 72.635 39.085 75.495 42.075C78.3983 45.065 79.85 49.16 79.85 54.36V54.685H74.455V54.165C74.455 50.7417 73.5233 47.9467 71.66 45.78C69.84 43.57 67.0017 42.465 63.145 42.465C59.2883 42.465 56.2767 43.6567 54.11 46.04C51.9433 48.38 50.86 51.6733 50.86 55.92V66.58C50.86 70.8267 51.9433 74.1417 54.11 76.525C56.2767 78.865 59.2883 80.035 63.145 80.035C67.0017 80.035 69.84 78.9517 71.66 76.785C73.5233 74.575 74.455 71.7583 74.455 68.335V67.295H79.85V68.14C79.85 73.34 78.3983 77.435 75.495 80.425C72.635 83.415 68.5183 84.91 63.145 84.91ZM103.289 84.91C100.082 84.91 97.2441 84.2383 94.7741 82.895C92.3474 81.5517 90.4408 79.6667 89.0541 77.24C87.7108 74.77 87.0391 71.8667 87.0391 68.53V67.685C87.0391 64.3917 87.7108 61.51 89.0541 59.04C90.4408 56.57 92.3474 54.6633 94.7741 53.32C97.2441 51.9767 100.082 51.305 103.289 51.305C106.496 51.305 109.312 51.9767 111.739 53.32C114.209 54.6633 116.116 56.57 117.459 59.04C118.846 61.51 119.539 64.3917 119.539 67.685V68.53C119.539 71.8667 118.846 74.77 117.459 77.24C116.116 79.6667 114.209 81.5517 111.739 82.895C109.312 84.2383 106.496 84.91 103.289 84.91ZM103.289 80.295C106.669 80.295 109.356 79.2333 111.349 77.11C113.386 74.9433 114.404 72.04 114.404 68.4V67.815C114.404 64.175 113.386 61.2933 111.349 59.17C109.356 57.0033 106.669 55.92 103.289 55.92C99.9524 55.92 97.2658 57.0033 95.2291 59.17C93.1924 61.2933 92.1741 64.175 92.1741 67.815V68.4C92.1741 72.04 93.1924 74.9433 95.2291 77.11C97.2658 79.2333 99.9524 80.295 103.289 80.295ZM128.78 84V52.215H133.785V57.61H134.695C135.388 56.0933 136.558 54.7283 138.205 53.515C139.895 52.2583 142.365 51.63 145.615 51.63C147.998 51.63 150.121 52.1283 151.985 53.125C153.891 54.1217 155.408 55.595 156.535 57.545C157.661 59.495 158.225 61.9 158.225 64.76V84H153.09V65.15C153.09 61.9867 152.288 59.69 150.685 58.26C149.125 56.83 147.001 56.115 144.315 56.115C141.238 56.115 138.725 57.1117 136.775 59.105C134.868 61.0983 133.915 64.0667 133.915 68.01V84H128.78ZM179.454 84C177.634 84 176.226 83.5017 175.229 82.505C174.276 81.5083 173.799 80.1433 173.799 78.41V56.7H164.244V52.215H173.799V40.905H178.934V52.215H189.334V56.7H178.934V77.63C178.934 78.93 179.563 79.58 180.819 79.58H187.904V84H179.454ZM197.652 84V52.215H202.657V56.115H203.567C204.13 54.7283 204.997 53.71 206.167 53.06C207.337 52.41 208.875 52.085 210.782 52.085H214.552V56.765H210.457C208.16 56.765 206.297 57.415 204.867 58.715C203.48 59.9717 202.787 61.9433 202.787 64.63V84H197.652ZM230.825 84.91C228.615 84.91 226.6 84.52 224.78 83.74C222.96 82.96 221.53 81.8333 220.49 80.36C219.45 78.8867 218.93 77.0883 218.93 74.965C218.93 72.7983 219.45 71.0217 220.49 69.635C221.53 68.205 222.96 67.1433 224.78 66.45C226.6 65.7133 228.636 65.345 230.89 65.345H241.615V63.005C241.615 60.7517 240.943 58.975 239.6 57.675C238.3 56.375 236.35 55.725 233.75 55.725C231.193 55.725 229.2 56.3533 227.77 57.61C226.34 58.8233 225.365 60.47 224.845 62.55L220.035 60.99C220.555 59.2133 221.378 57.61 222.505 56.18C223.631 54.7067 225.126 53.5367 226.99 52.67C228.896 51.76 231.171 51.305 233.815 51.305C237.888 51.305 241.051 52.3667 243.305 54.49C245.558 56.57 246.685 59.5167 246.685 63.33V77.695C246.685 78.995 247.291 79.645 248.505 79.645H251.43V84H246.945C245.515 84 244.366 83.61 243.5 82.83C242.633 82.0067 242.2 80.9233 242.2 79.58V79.255H241.42C240.943 80.0783 240.293 80.945 239.47 81.855C238.69 82.7217 237.606 83.4367 236.22 84C234.833 84.6067 233.035 84.91 230.825 84.91ZM231.41 80.49C234.443 80.49 236.891 79.6017 238.755 77.825C240.661 76.005 241.615 73.47 241.615 70.22V69.505H231.085C229.048 69.505 227.358 69.96 226.015 70.87C224.715 71.7367 224.065 73.0583 224.065 74.835C224.065 76.6117 224.736 77.9983 226.08 78.995C227.466 79.9917 229.243 80.49 231.41 80.49ZM272.199 84.91C269.122 84.91 266.349 84.26 263.879 82.96C261.452 81.6167 259.524 79.71 258.094 77.24C256.707 74.77 256.014 71.845 256.014 68.465V67.75C256.014 64.3267 256.707 61.4017 258.094 58.975C259.524 56.505 261.452 54.62 263.879 53.32C266.349 51.9767 269.122 51.305 272.199 51.305C275.232 51.305 277.81 51.8683 279.934 52.995C282.1 54.1217 283.79 55.6167 285.004 57.48C286.26 59.3433 287.062 61.3367 287.409 63.46L282.404 64.5C282.187 62.94 281.667 61.51 280.844 60.21C280.064 58.91 278.959 57.87 277.529 57.09C276.099 56.31 274.344 55.92 272.264 55.92C270.14 55.92 268.234 56.3967 266.544 57.35C264.897 58.3033 263.575 59.6683 262.579 61.445C261.625 63.2217 261.149 65.345 261.149 67.815V68.4C261.149 70.87 261.625 72.9933 262.579 74.77C263.575 76.5467 264.897 77.9117 266.544 78.865C268.234 79.8183 270.14 80.295 272.264 80.295C275.427 80.295 277.832 79.4717 279.479 77.825C281.169 76.1783 282.209 74.1417 282.599 71.715L287.669 72.82C287.192 74.9 286.325 76.8717 285.069 78.735C283.812 80.5983 282.1 82.0933 279.934 83.22C277.81 84.3467 275.232 84.91 272.199 84.91ZM306.788 84C304.968 84 303.56 83.5017 302.563 82.505C301.61 81.5083 301.133 80.1433 301.133 78.41V56.7H291.578V52.215H301.133V40.905H306.268V52.215H316.668V56.7H306.268V77.63C306.268 78.93 306.897 79.58 308.153 79.58H315.238V84H306.788ZM338.533 84.91C335.327 84.91 332.488 84.2383 330.018 82.895C327.592 81.5517 325.685 79.6667 324.298 77.24C322.955 74.77 322.283 71.8667 322.283 68.53V67.685C322.283 64.3917 322.955 61.51 324.298 59.04C325.685 56.57 327.592 54.6633 330.018 53.32C332.488 51.9767 335.327 51.305 338.533 51.305C341.74 51.305 344.557 51.9767 346.983 53.32C349.453 54.6633 351.36 56.57 352.703 59.04C354.09 61.51 354.783 64.3917 354.783 67.685V68.53C354.783 71.8667 354.09 74.77 352.703 77.24C351.36 79.6667 349.453 81.5517 346.983 82.895C344.557 84.2383 341.74 84.91 338.533 84.91ZM338.533 80.295C341.913 80.295 344.6 79.2333 346.593 77.11C348.63 74.9433 349.648 72.04 349.648 68.4V67.815C349.648 64.175 348.63 61.2933 346.593 59.17C344.6 57.0033 341.913 55.92 338.533 55.92C335.197 55.92 332.51 57.0033 330.473 59.17C328.437 61.2933 327.418 64.175 327.418 67.815V68.4C327.418 72.04 328.437 74.9433 330.473 77.11C332.51 79.2333 335.197 80.295 338.533 80.295ZM364.024 84V52.215H369.029V56.115H369.939C370.502 54.7283 371.369 53.71 372.539 53.06C373.709 52.41 375.247 52.085 377.154 52.085H380.924V56.765H376.829C374.532 56.765 372.669 57.415 371.239 58.715C369.852 59.9717 369.159 61.9433 369.159 64.63V84H364.024Z" fill="white"/>
</svg>
