<svg width="614" height="119" viewBox="0 0 614 119" fill="none" xmlns="http://www.w3.org/2000/svg">
<rect width="614" height="119" rx="32" fill="#0055FF"/>
<path d="M78.145 82.91C72.7283 82.91 68.4167 81.35 65.21 78.23C62.0033 75.0667 60.4 70.4733 60.4 64.45V54.05C60.4 48.0267 62.0033 43.455 65.21 40.335C68.4167 37.1717 72.7283 35.59 78.145 35.59C83.5183 35.59 87.635 37.085 90.495 40.075C93.3983 43.065 94.85 47.16 94.85 52.36V52.685H89.455V52.165C89.455 48.7417 88.5233 45.9467 86.66 43.78C84.84 41.57 82.0017 40.465 78.145 40.465C74.2883 40.465 71.2767 41.6567 69.11 44.04C66.9433 46.38 65.86 49.6733 65.86 53.92V64.58C65.86 68.8267 66.9433 72.1417 69.11 74.525C71.2767 76.865 74.2883 78.035 78.145 78.035C82.0017 78.035 84.84 76.9517 86.66 74.785C88.5233 72.575 89.455 69.7583 89.455 66.335V65.295H94.85V66.14C94.85 71.34 93.3983 75.435 90.495 78.425C87.635 81.415 83.5183 82.91 78.145 82.91ZM118.289 82.91C115.082 82.91 112.244 82.2383 109.774 80.895C107.347 79.5517 105.441 77.6667 104.054 75.24C102.711 72.77 102.039 69.8667 102.039 66.53V65.685C102.039 62.3917 102.711 59.51 104.054 57.04C105.441 54.57 107.347 52.6633 109.774 51.32C112.244 49.9767 115.082 49.305 118.289 49.305C121.496 49.305 124.312 49.9767 126.739 51.32C129.209 52.6633 131.116 54.57 132.459 57.04C133.846 59.51 134.539 62.3917 134.539 65.685V66.53C134.539 69.8667 133.846 72.77 132.459 75.24C131.116 77.6667 129.209 79.5517 126.739 80.895C124.312 82.2383 121.496 82.91 118.289 82.91ZM118.289 78.295C121.669 78.295 124.356 77.2333 126.349 75.11C128.386 72.9433 129.404 70.04 129.404 66.4V65.815C129.404 62.175 128.386 59.2933 126.349 57.17C124.356 55.0033 121.669 53.92 118.289 53.92C114.952 53.92 112.266 55.0033 110.229 57.17C108.192 59.2933 107.174 62.175 107.174 65.815V66.4C107.174 70.04 108.192 72.9433 110.229 75.11C112.266 77.2333 114.952 78.295 118.289 78.295ZM143.78 82V50.215H148.785V55.61H149.695C150.388 54.0933 151.558 52.7283 153.205 51.515C154.895 50.2583 157.365 49.63 160.615 49.63C162.998 49.63 165.121 50.1283 166.985 51.125C168.891 52.1217 170.408 53.595 171.535 55.545C172.661 57.495 173.225 59.9 173.225 62.76V82H168.09V63.15C168.09 59.9867 167.288 57.69 165.685 56.26C164.125 54.83 162.001 54.115 159.315 54.115C156.238 54.115 153.725 55.1117 151.775 57.105C149.868 59.0983 148.915 62.0667 148.915 66.01V82H143.78ZM194.454 82C192.634 82 191.226 81.5017 190.229 80.505C189.276 79.5083 188.799 78.1433 188.799 76.41V54.7H179.244V50.215H188.799V38.905H193.934V50.215H204.334V54.7H193.934V75.63C193.934 76.93 194.563 77.58 195.819 77.58H202.904V82H194.454ZM212.652 82V50.215H217.657V54.115H218.567C219.13 52.7283 219.997 51.71 221.167 51.06C222.337 50.41 223.875 50.085 225.782 50.085H229.552V54.765H225.457C223.16 54.765 221.297 55.415 219.867 56.715C218.48 57.9717 217.787 59.9433 217.787 62.63V82H212.652ZM245.825 82.91C243.615 82.91 241.6 82.52 239.78 81.74C237.96 80.96 236.53 79.8333 235.49 78.36C234.45 76.8867 233.93 75.0883 233.93 72.965C233.93 70.7983 234.45 69.0217 235.49 67.635C236.53 66.205 237.96 65.1433 239.78 64.45C241.6 63.7133 243.636 63.345 245.89 63.345H256.615V61.005C256.615 58.7517 255.943 56.975 254.6 55.675C253.3 54.375 251.35 53.725 248.75 53.725C246.193 53.725 244.2 54.3533 242.77 55.61C241.34 56.8233 240.365 58.47 239.845 60.55L235.035 58.99C235.555 57.2133 236.378 55.61 237.505 54.18C238.631 52.7067 240.126 51.5367 241.99 50.67C243.896 49.76 246.171 49.305 248.815 49.305C252.888 49.305 256.051 50.3667 258.305 52.49C260.558 54.57 261.685 57.5167 261.685 61.33V75.695C261.685 76.995 262.291 77.645 263.505 77.645H266.43V82H261.945C260.515 82 259.366 81.61 258.5 80.83C257.633 80.0067 257.2 78.9233 257.2 77.58V77.255H256.42C255.943 78.0783 255.293 78.945 254.47 79.855C253.69 80.7217 252.606 81.4367 251.22 82C249.833 82.6067 248.035 82.91 245.825 82.91ZM246.41 78.49C249.443 78.49 251.891 77.6017 253.755 75.825C255.661 74.005 256.615 71.47 256.615 68.22V67.505H246.085C244.048 67.505 242.358 67.96 241.015 68.87C239.715 69.7367 239.065 71.0583 239.065 72.835C239.065 74.6117 239.736 75.9983 241.08 76.995C242.466 77.9917 244.243 78.49 246.41 78.49ZM287.199 82.91C284.122 82.91 281.349 82.26 278.879 80.96C276.452 79.6167 274.524 77.71 273.094 75.24C271.707 72.77 271.014 69.845 271.014 66.465V65.75C271.014 62.3267 271.707 59.4017 273.094 56.975C274.524 54.505 276.452 52.62 278.879 51.32C281.349 49.9767 284.122 49.305 287.199 49.305C290.232 49.305 292.81 49.8683 294.934 50.995C297.1 52.1217 298.79 53.6167 300.004 55.48C301.26 57.3433 302.062 59.3367 302.409 61.46L297.404 62.5C297.187 60.94 296.667 59.51 295.844 58.21C295.064 56.91 293.959 55.87 292.529 55.09C291.099 54.31 289.344 53.92 287.264 53.92C285.14 53.92 283.234 54.3967 281.544 55.35C279.897 56.3033 278.575 57.6683 277.579 59.445C276.625 61.2217 276.149 63.345 276.149 65.815V66.4C276.149 68.87 276.625 70.9933 277.579 72.77C278.575 74.5467 279.897 75.9117 281.544 76.865C283.234 77.8183 285.14 78.295 287.264 78.295C290.427 78.295 292.832 77.4717 294.479 75.825C296.169 74.1783 297.209 72.1417 297.599 69.715L302.669 70.82C302.192 72.9 301.325 74.8717 300.069 76.735C298.812 78.5983 297.1 80.0933 294.934 81.22C292.81 82.3467 290.232 82.91 287.199 82.91ZM321.788 82C319.968 82 318.56 81.5017 317.563 80.505C316.61 79.5083 316.133 78.1433 316.133 76.41V54.7H306.578V50.215H316.133V38.905H321.268V50.215H331.668V54.7H321.268V75.63C321.268 76.93 321.897 77.58 323.153 77.58H330.238V82H321.788ZM368.38 82C366.56 82 365.152 81.5017 364.155 80.505C363.202 79.5083 362.725 78.1433 362.725 76.41V54.7H353.17V50.215H362.725V38.905H367.86V50.215H378.26V54.7H367.86V75.63C367.86 76.93 368.488 77.58 369.745 77.58H376.83V82H368.38ZM400.125 82.91C396.918 82.91 394.08 82.2383 391.61 80.895C389.183 79.5517 387.277 77.6667 385.89 75.24C384.547 72.77 383.875 69.8667 383.875 66.53V65.685C383.875 62.3917 384.547 59.51 385.89 57.04C387.277 54.57 389.183 52.6633 391.61 51.32C394.08 49.9767 396.918 49.305 400.125 49.305C403.332 49.305 406.148 49.9767 408.575 51.32C411.045 52.6633 412.952 54.57 414.295 57.04C415.682 59.51 416.375 62.3917 416.375 65.685V66.53C416.375 69.8667 415.682 72.77 414.295 75.24C412.952 77.6667 411.045 79.5517 408.575 80.895C406.148 82.2383 403.332 82.91 400.125 82.91ZM400.125 78.295C403.505 78.295 406.192 77.2333 408.185 75.11C410.222 72.9433 411.24 70.04 411.24 66.4V65.815C411.24 62.175 410.222 59.2933 408.185 57.17C406.192 55.0033 403.505 53.92 400.125 53.92C396.788 53.92 394.102 55.0033 392.065 57.17C390.028 59.2933 389.01 62.175 389.01 65.815V66.4C389.01 70.04 390.028 72.9433 392.065 75.11C394.102 77.2333 396.788 78.295 400.125 78.295ZM442.115 82V36.5H447.575V56.715H468.895V36.5H474.355V82H468.895V61.655H447.575V82H442.115ZM484.966 82V50.215H490.101V82H484.966ZM487.566 45.275C486.44 45.275 485.486 44.9067 484.706 44.17C483.97 43.4333 483.601 42.5017 483.601 41.375C483.601 40.205 483.97 39.2517 484.706 38.515C485.486 37.7783 486.44 37.41 487.566 37.41C488.693 37.41 489.625 37.7783 490.361 38.515C491.098 39.2517 491.466 40.205 491.466 41.375C491.466 42.5017 491.098 43.4333 490.361 44.17C489.625 44.9067 488.693 45.275 487.566 45.275ZM500.899 82V50.215H505.904V54.115H506.814C507.377 52.7283 508.244 51.71 509.414 51.06C510.584 50.41 512.122 50.085 514.029 50.085H517.799V54.765H513.704C511.407 54.765 509.544 55.415 508.114 56.715C506.727 57.9717 506.034 59.9433 506.034 62.63V82H500.899ZM538.818 82.91C535.612 82.91 532.795 82.2383 530.368 80.895C527.942 79.5083 526.057 77.58 524.713 75.11C523.37 72.64 522.698 69.78 522.698 66.53V65.75C522.698 62.4567 523.37 59.575 524.713 57.105C526.057 54.635 527.92 52.7283 530.303 51.385C532.687 49.9983 535.417 49.305 538.493 49.305C541.483 49.305 544.127 49.955 546.423 51.255C548.72 52.5117 550.518 54.3317 551.818 56.715C553.118 59.0983 553.768 61.8933 553.768 65.1V67.44H527.833C527.963 70.8633 529.068 73.55 531.148 75.5C533.228 77.4067 535.828 78.36 538.948 78.36C541.678 78.36 543.78 77.7317 545.253 76.475C546.727 75.2183 547.853 73.7233 548.633 71.99L553.053 74.135C552.403 75.4783 551.493 76.8217 550.323 78.165C549.197 79.5083 547.702 80.635 545.838 81.545C544.018 82.455 541.678 82.91 538.818 82.91ZM527.898 63.215H548.568C548.395 60.2683 547.377 57.9717 545.513 56.325C543.693 54.6783 541.353 53.855 538.493 53.855C535.59 53.855 533.207 54.6783 531.343 56.325C529.48 57.9717 528.332 60.2683 527.898 63.215Z" fill="white"/>
</svg>
