<svg width="614" height="119" viewBox="0 0 614 119" fill="none" xmlns="http://www.w3.org/2000/svg">
<rect width="614" height="119" rx="32" fill="#0055FF"/>
<path d="M41.055 82V77.125H47.425V41.375H41.055V36.5H58.8C64.78 36.5 69.395 38.0167 72.645 41.05C75.9383 44.0833 77.585 48.7417 77.585 55.025V63.475C77.585 69.8017 75.9383 74.4817 72.645 77.515C69.395 80.505 64.78 82 58.8 82H41.055ZM52.885 77.06H58.8C63.22 77.06 66.5567 75.9767 68.81 73.81C71.0633 71.6433 72.19 68.285 72.19 63.735V54.83C72.19 50.1933 71.0633 46.8133 68.81 44.69C66.5567 42.5667 63.22 41.505 58.8 41.505H52.885V77.06ZM86.4956 82V50.215H91.6306V82H86.4956ZM89.0956 45.275C87.9689 45.275 87.0156 44.9067 86.2356 44.17C85.4989 43.4333 85.1306 42.5017 85.1306 41.375C85.1306 40.205 85.4989 39.2517 86.2356 38.515C87.0156 37.7783 87.9689 37.41 89.0956 37.41C90.2223 37.41 91.1539 37.7783 91.8906 38.515C92.6273 39.2517 92.9956 40.205 92.9956 41.375C92.9956 42.5017 92.6273 43.4333 91.8906 44.17C91.1539 44.9067 90.2223 45.275 89.0956 45.275ZM102.428 82V50.215H107.433V54.115H108.343C108.907 52.7283 109.773 51.71 110.943 51.06C112.113 50.41 113.652 50.085 115.558 50.085H119.328V54.765H115.233C112.937 54.765 111.073 55.415 109.643 56.715C108.257 57.9717 107.563 59.9433 107.563 62.63V82H102.428ZM140.348 82.91C137.141 82.91 134.324 82.2383 131.898 80.895C129.471 79.5083 127.586 77.58 126.243 75.11C124.899 72.64 124.228 69.78 124.228 66.53V65.75C124.228 62.4567 124.899 59.575 126.243 57.105C127.586 54.635 129.449 52.7283 131.833 51.385C134.216 49.9983 136.946 49.305 140.023 49.305C143.013 49.305 145.656 49.955 147.953 51.255C150.249 52.5117 152.048 54.3317 153.348 56.715C154.648 59.0983 155.298 61.8933 155.298 65.1V67.44H129.363C129.493 70.8633 130.598 73.55 132.678 75.5C134.758 77.4067 137.358 78.36 140.478 78.36C143.208 78.36 145.309 77.7317 146.783 76.475C148.256 75.2183 149.383 73.7233 150.163 71.99L154.583 74.135C153.933 75.4783 153.023 76.8217 151.853 78.165C150.726 79.5083 149.231 80.635 147.368 81.545C145.548 82.455 143.208 82.91 140.348 82.91ZM129.428 63.215H150.098C149.924 60.2683 148.906 57.9717 147.043 56.325C145.223 54.6783 142.883 53.855 140.023 53.855C137.119 53.855 134.736 54.6783 132.873 56.325C131.009 57.9717 129.861 60.2683 129.428 63.215ZM178.879 82.91C175.803 82.91 173.029 82.26 170.559 80.96C168.133 79.6167 166.204 77.71 164.774 75.24C163.388 72.77 162.694 69.845 162.694 66.465V65.75C162.694 62.3267 163.388 59.4017 164.774 56.975C166.204 54.505 168.133 52.62 170.559 51.32C173.029 49.9767 175.803 49.305 178.879 49.305C181.913 49.305 184.491 49.8683 186.614 50.995C188.781 52.1217 190.471 53.6167 191.684 55.48C192.941 57.3433 193.743 59.3367 194.089 61.46L189.084 62.5C188.868 60.94 188.348 59.51 187.524 58.21C186.744 56.91 185.639 55.87 184.209 55.09C182.779 54.31 181.024 53.92 178.944 53.92C176.821 53.92 174.914 54.3967 173.224 55.35C171.578 56.3033 170.256 57.6683 169.259 59.445C168.306 61.2217 167.829 63.345 167.829 65.815V66.4C167.829 68.87 168.306 70.9933 169.259 72.77C170.256 74.5467 171.578 75.9117 173.224 76.865C174.914 77.8183 176.821 78.295 178.944 78.295C182.108 78.295 184.513 77.4717 186.159 75.825C187.849 74.1783 188.889 72.1417 189.279 69.715L194.349 70.82C193.873 72.9 193.006 74.8717 191.749 76.735C190.493 78.5983 188.781 80.0933 186.614 81.22C184.491 82.3467 181.913 82.91 178.879 82.91ZM213.469 82C211.649 82 210.241 81.5017 209.244 80.505C208.291 79.5083 207.814 78.1433 207.814 76.41V54.7H198.259V50.215H207.814V38.905H212.949V50.215H223.349V54.7H212.949V75.63C212.949 76.93 213.577 77.58 214.834 77.58H221.919V82H213.469ZM248.166 82V36.5H265.586C268.316 36.5 270.742 37.0417 272.866 38.125C275.032 39.165 276.744 40.66 278.001 42.61C279.257 44.56 279.886 46.9217 279.886 49.695V50.54C279.886 53.27 279.236 55.6317 277.936 57.625C276.679 59.575 274.967 61.07 272.801 62.11C270.634 63.15 268.229 63.67 265.586 63.67H253.626V82H248.166ZM253.626 58.73H265.001C267.904 58.73 270.201 58.015 271.891 56.585C273.581 55.1117 274.426 53.0533 274.426 50.41V49.76C274.426 47.1167 273.581 45.08 271.891 43.65C270.244 42.1767 267.947 41.44 265.001 41.44H253.626V58.73ZM287.399 82V36.5H292.534V82H287.399ZM313.082 82.91C310.872 82.91 308.857 82.52 307.037 81.74C305.217 80.96 303.787 79.8333 302.747 78.36C301.707 76.8867 301.187 75.0883 301.187 72.965C301.187 70.7983 301.707 69.0217 302.747 67.635C303.787 66.205 305.217 65.1433 307.037 64.45C308.857 63.7133 310.893 63.345 313.147 63.345H323.872V61.005C323.872 58.7517 323.2 56.975 321.857 55.675C320.557 54.375 318.607 53.725 316.007 53.725C313.45 53.725 311.457 54.3533 310.027 55.61C308.597 56.8233 307.622 58.47 307.102 60.55L302.292 58.99C302.812 57.2133 303.635 55.61 304.762 54.18C305.888 52.7067 307.383 51.5367 309.247 50.67C311.153 49.76 313.428 49.305 316.072 49.305C320.145 49.305 323.308 50.3667 325.562 52.49C327.815 54.57 328.942 57.5167 328.942 61.33V75.695C328.942 76.995 329.548 77.645 330.762 77.645H333.687V82H329.202C327.772 82 326.623 81.61 325.757 80.83C324.89 80.0067 324.457 78.9233 324.457 77.58V77.255H323.677C323.2 78.0783 322.55 78.945 321.727 79.855C320.947 80.7217 319.863 81.4367 318.477 82C317.09 82.6067 315.292 82.91 313.082 82.91ZM313.667 78.49C316.7 78.49 319.148 77.6017 321.012 75.825C322.918 74.005 323.872 71.47 323.872 68.22V67.505H313.342C311.305 67.505 309.615 67.96 308.272 68.87C306.972 69.7367 306.322 71.0583 306.322 72.835C306.322 74.6117 306.993 75.9983 308.337 76.995C309.723 77.9917 311.5 78.49 313.667 78.49ZM354.456 82.91C351.379 82.91 348.606 82.26 346.136 80.96C343.709 79.6167 341.781 77.71 340.351 75.24C338.964 72.77 338.271 69.845 338.271 66.465V65.75C338.271 62.3267 338.964 59.4017 340.351 56.975C341.781 54.505 343.709 52.62 346.136 51.32C348.606 49.9767 351.379 49.305 354.456 49.305C357.489 49.305 360.067 49.8683 362.191 50.995C364.357 52.1217 366.047 53.6167 367.261 55.48C368.517 57.3433 369.319 59.3367 369.666 61.46L364.661 62.5C364.444 60.94 363.924 59.51 363.101 58.21C362.321 56.91 361.216 55.87 359.786 55.09C358.356 54.31 356.601 53.92 354.521 53.92C352.397 53.92 350.491 54.3967 348.801 55.35C347.154 56.3033 345.832 57.6683 344.836 59.445C343.882 61.2217 343.406 63.345 343.406 65.815V66.4C343.406 68.87 343.882 70.9933 344.836 72.77C345.832 74.5467 347.154 75.9117 348.801 76.865C350.491 77.8183 352.397 78.295 354.521 78.295C357.684 78.295 360.089 77.4717 361.736 75.825C363.426 74.1783 364.466 72.1417 364.856 69.715L369.926 70.82C369.449 72.9 368.582 74.8717 367.326 76.735C366.069 78.5983 364.357 80.0933 362.191 81.22C360.067 82.3467 357.489 82.91 354.456 82.91ZM393.238 82.91C390.032 82.91 387.215 82.2383 384.788 80.895C382.362 79.5083 380.477 77.58 379.133 75.11C377.79 72.64 377.118 69.78 377.118 66.53V65.75C377.118 62.4567 377.79 59.575 379.133 57.105C380.477 54.635 382.34 52.7283 384.723 51.385C387.107 49.9983 389.837 49.305 392.913 49.305C395.903 49.305 398.547 49.955 400.843 51.255C403.14 52.5117 404.938 54.3317 406.238 56.715C407.538 59.0983 408.188 61.8933 408.188 65.1V67.44H382.253C382.383 70.8633 383.488 73.55 385.568 75.5C387.648 77.4067 390.248 78.36 393.368 78.36C396.098 78.36 398.2 77.7317 399.673 76.475C401.147 75.2183 402.273 73.7233 403.053 71.99L407.473 74.135C406.823 75.4783 405.913 76.8217 404.743 78.165C403.617 79.5083 402.122 80.635 400.258 81.545C398.438 82.455 396.098 82.91 393.238 82.91ZM382.318 63.215H402.988C402.815 60.2683 401.797 57.9717 399.933 56.325C398.113 54.6783 395.773 53.855 392.913 53.855C390.01 53.855 387.627 54.6783 385.763 56.325C383.9 57.9717 382.752 60.2683 382.318 63.215ZM417.145 82V50.215H422.15V54.18H423.06C423.667 53.0533 424.663 52.0133 426.05 51.06C427.437 50.1067 429.387 49.63 431.9 49.63C434.37 49.63 436.363 50.1717 437.88 51.255C439.44 52.3383 440.567 53.66 441.26 55.22H442.17C442.907 53.66 444.012 52.3383 445.485 51.255C447.002 50.1717 449.103 49.63 451.79 49.63C453.913 49.63 455.777 50.0633 457.38 50.93C458.983 51.7967 460.24 53.0533 461.15 54.7C462.103 56.3033 462.58 58.2317 462.58 60.485V82H457.445V60.94C457.445 58.8167 456.817 57.1483 455.56 55.935C454.347 54.6783 452.635 54.05 450.425 54.05C448.085 54.05 446.157 54.8083 444.64 56.325C443.167 57.8417 442.43 60.03 442.43 62.89V82H437.295V60.94C437.295 58.8167 436.667 57.1483 435.41 55.935C434.197 54.6783 432.485 54.05 430.275 54.05C427.935 54.05 426.007 54.8083 424.49 56.325C423.017 57.8417 422.28 60.03 422.28 62.89V82H417.145ZM487.628 82.91C484.421 82.91 481.605 82.2383 479.178 80.895C476.751 79.5083 474.866 77.58 473.523 75.11C472.18 72.64 471.508 69.78 471.508 66.53V65.75C471.508 62.4567 472.18 59.575 473.523 57.105C474.866 54.635 476.73 52.7283 479.113 51.385C481.496 49.9983 484.226 49.305 487.303 49.305C490.293 49.305 492.936 49.955 495.233 51.255C497.53 52.5117 499.328 54.3317 500.628 56.715C501.928 59.0983 502.578 61.8933 502.578 65.1V67.44H476.643C476.773 70.8633 477.878 73.55 479.958 75.5C482.038 77.4067 484.638 78.36 487.758 78.36C490.488 78.36 492.59 77.7317 494.063 76.475C495.536 75.2183 496.663 73.7233 497.443 71.99L501.863 74.135C501.213 75.4783 500.303 76.8217 499.133 78.165C498.006 79.5083 496.511 80.635 494.648 81.545C492.828 82.455 490.488 82.91 487.628 82.91ZM476.708 63.215H497.378C497.205 60.2683 496.186 57.9717 494.323 56.325C492.503 54.6783 490.163 53.855 487.303 53.855C484.4 53.855 482.016 54.6783 480.153 56.325C478.29 57.9717 477.141 60.2683 476.708 63.215ZM511.535 82V50.215H516.54V55.61H517.45C518.143 54.0933 519.313 52.7283 520.96 51.515C522.65 50.2583 525.12 49.63 528.37 49.63C530.753 49.63 532.876 50.1283 534.74 51.125C536.646 52.1217 538.163 53.595 539.29 55.545C540.416 57.495 540.98 59.9 540.98 62.76V82H535.845V63.15C535.845 59.9867 535.043 57.69 533.44 56.26C531.88 54.83 529.756 54.115 527.07 54.115C523.993 54.115 521.48 55.1117 519.53 57.105C517.623 59.0983 516.67 62.0667 516.67 66.01V82H511.535ZM562.209 82C560.389 82 558.981 81.5017 557.984 80.505C557.031 79.5083 556.554 78.1433 556.554 76.41V54.7H546.999V50.215H556.554V38.905H561.689V50.215H572.089V54.7H561.689V75.63C561.689 76.93 562.318 77.58 563.574 77.58H570.659V82H562.209Z" fill="white"/>
</svg>
