<svg width="277" height="39" viewBox="0 0 277 39" fill="none" xmlns="http://www.w3.org/2000/svg">
<rect width="277" height="39" rx="19.5" fill="#2237F1"/>
<path d="M25.128 28V26.2H27.48L27.48 13H25.128V11.2H31.68C33.888 11.2 35.592 11.76 36.792 12.88C38.008 14 38.616 15.72 38.616 18.04V21.16C38.616 23.496 38.008 25.224 36.792 26.344C35.592 27.448 33.888 28 31.68 28H25.128ZM29.496 26.176H31.68C33.312 26.176 34.544 25.776 35.376 24.976C36.208 24.176 36.624 22.936 36.624 21.256V17.968C36.624 16.256 36.208 15.008 35.376 14.224C34.544 13.44 33.312 13.048 31.68 13.048L29.496 13.048L29.496 26.176ZM43.9061 28V16.264H45.8021V28H43.9061ZM44.8661 14.44C44.4501 14.44 44.0981 14.304 43.8101 14.032C43.5381 13.76 43.4021 13.416 43.4021 13C43.4021 12.568 43.5381 12.216 43.8101 11.944C44.0981 11.672 44.4501 11.536 44.8661 11.536C45.2821 11.536 45.6261 11.672 45.8981 11.944C46.1701 12.216 46.3061 12.568 46.3061 13C46.3061 13.416 46.1701 13.76 45.8981 14.032C45.6261 14.304 45.2821 14.44 44.8661 14.44ZM51.7889 28V16.264H53.6369V17.704H53.9729C54.1809 17.192 54.5009 16.816 54.9329 16.576C55.3649 16.336 55.9329 16.216 56.6369 16.216H58.0289V17.944H56.5169C55.6689 17.944 54.9809 18.184 54.4529 18.664C53.9409 19.128 53.6849 19.856 53.6849 20.848V28H51.7889ZM67.7899 28.336C66.6059 28.336 65.5659 28.088 64.6699 27.592C63.7739 27.08 63.0779 26.368 62.5819 25.456C62.0859 24.544 61.8379 23.488 61.8379 22.288V22C61.8379 20.784 62.0859 19.72 62.5819 18.808C63.0779 17.896 63.7659 17.192 64.6459 16.696C65.5259 16.184 66.5339 15.928 67.6699 15.928C68.7739 15.928 69.7499 16.168 70.5979 16.648C71.4459 17.112 72.1099 17.784 72.5899 18.664C73.0699 19.544 73.3099 20.576 73.3099 21.76V22.624H63.7339C63.7819 23.888 64.1899 24.88 64.9579 25.6C65.7259 26.304 66.6859 26.656 67.8379 26.656C68.8459 26.656 69.6219 26.424 70.1659 25.96C70.7099 25.496 71.1259 24.944 71.4139 24.304L73.0459 25.096C72.8059 25.592 72.4699 26.088 72.0379 26.584C71.6219 27.08 71.0699 27.496 70.3819 27.832C69.7099 28.168 68.8459 28.336 67.7899 28.336ZM63.7579 21.064H71.3899C71.3259 19.976 70.9499 19.128 70.2619 18.52C69.5899 17.912 68.7259 17.608 67.6699 17.608C66.5979 17.608 65.7179 17.912 65.0299 18.52C64.3419 19.128 63.9179 19.976 63.7579 21.064ZM84.017 28.336C82.881 28.336 81.857 28.096 80.945 27.616C80.049 27.12 79.337 26.416 78.809 25.504C78.297 24.592 78.041 23.512 78.041 22.264V22C78.041 20.736 78.297 19.656 78.809 18.76C79.337 17.848 80.049 17.152 80.945 16.672C81.857 16.176 82.881 15.928 84.017 15.928C85.137 15.928 86.089 16.136 86.873 16.552C87.673 16.968 88.297 17.52 88.745 18.208C89.209 18.896 89.505 19.632 89.633 20.416L87.785 20.8C87.705 20.224 87.513 19.696 87.209 19.216C86.921 18.736 86.513 18.352 85.985 18.064C85.457 17.776 84.809 17.632 84.041 17.632C83.257 17.632 82.553 17.808 81.929 18.16C81.321 18.512 80.833 19.016 80.465 19.672C80.113 20.328 79.937 21.112 79.937 22.024V22.24C79.937 23.152 80.113 23.936 80.465 24.592C80.833 25.248 81.321 25.752 81.929 26.104C82.553 26.456 83.257 26.632 84.041 26.632C85.209 26.632 86.097 26.328 86.705 25.72C87.329 25.112 87.713 24.36 87.857 23.464L89.729 23.872C89.553 24.64 89.233 25.368 88.769 26.056C88.305 26.744 87.673 27.296 86.873 27.712C86.089 28.128 85.137 28.336 84.017 28.336ZM98.7886 28C98.1166 28 97.5966 27.816 97.2286 27.448C96.8766 27.08 96.7006 26.576 96.7006 25.936V17.92L93.1726 17.92V16.264L96.7006 16.264V12.088H98.5966V16.264H102.437V17.92H98.5966V25.648C98.5966 26.128 98.8286 26.368 99.2926 26.368L101.909 26.368V28L98.7886 28ZM115.6 28V11.2L122.032 11.2C123.04 11.2 123.936 11.4 124.72 11.8C125.52 12.184 126.152 12.736 126.616 13.456C127.08 14.176 127.312 15.048 127.312 16.072V16.384C127.312 17.392 127.072 18.264 126.592 19C126.128 19.72 125.496 20.272 124.696 20.656C123.896 21.04 123.008 21.232 122.032 21.232H117.616V28H115.6ZM117.616 19.408H121.816C122.888 19.408 123.736 19.144 124.36 18.616C124.984 18.072 125.296 17.312 125.296 16.336V16.096C125.296 15.12 124.984 14.368 124.36 13.84C123.752 13.296 122.904 13.024 121.816 13.024L117.616 13.024V19.408ZM132.086 28V11.2H133.982V28H132.086ZM143.569 28.336C142.753 28.336 142.009 28.192 141.337 27.904C140.665 27.616 140.137 27.2 139.753 26.656C139.369 26.112 139.177 25.448 139.177 24.664C139.177 23.864 139.369 23.208 139.753 22.696C140.137 22.168 140.665 21.776 141.337 21.52C142.009 21.248 142.761 21.112 143.593 21.112L147.553 21.112V20.248C147.553 19.416 147.305 18.76 146.809 18.28C146.329 17.8 145.609 17.56 144.649 17.56C143.705 17.56 142.969 17.792 142.441 18.256C141.913 18.704 141.553 19.312 141.361 20.08L139.585 19.504C139.777 18.848 140.081 18.256 140.497 17.728C140.913 17.184 141.465 16.752 142.153 16.432C142.857 16.096 143.697 15.928 144.673 15.928C146.177 15.928 147.345 16.32 148.177 17.104C149.009 17.872 149.425 18.96 149.425 20.368V25.672C149.425 26.152 149.649 26.392 150.097 26.392H151.177V28H149.521C148.993 28 148.569 27.856 148.249 27.568C147.929 27.264 147.769 26.864 147.769 26.368V26.248H147.481C147.305 26.552 147.065 26.872 146.761 27.208C146.473 27.528 146.073 27.792 145.561 28C145.049 28.224 144.385 28.336 143.569 28.336ZM143.785 26.704C144.905 26.704 145.809 26.376 146.497 25.72C147.201 25.048 147.553 24.112 147.553 22.912V22.648L143.665 22.648C142.913 22.648 142.289 22.816 141.793 23.152C141.313 23.472 141.073 23.96 141.073 24.616C141.073 25.272 141.321 25.784 141.817 26.152C142.329 26.52 142.985 26.704 143.785 26.704ZM160.845 28.336C159.709 28.336 158.685 28.096 157.773 27.616C156.877 27.12 156.165 26.416 155.637 25.504C155.125 24.592 154.869 23.512 154.869 22.264V22C154.869 20.736 155.125 19.656 155.637 18.76C156.165 17.848 156.877 17.152 157.773 16.672C158.685 16.176 159.709 15.928 160.845 15.928C161.965 15.928 162.917 16.136 163.701 16.552C164.501 16.968 165.125 17.52 165.573 18.208C166.037 18.896 166.333 19.632 166.461 20.416L164.613 20.8C164.533 20.224 164.341 19.696 164.037 19.216C163.749 18.736 163.341 18.352 162.813 18.064C162.285 17.776 161.637 17.632 160.869 17.632C160.085 17.632 159.381 17.808 158.757 18.16C158.149 18.512 157.661 19.016 157.293 19.672C156.941 20.328 156.765 21.112 156.765 22.024V22.24C156.765 23.152 156.941 23.936 157.293 24.592C157.661 25.248 158.149 25.752 158.757 26.104C159.381 26.456 160.085 26.632 160.869 26.632C162.037 26.632 162.925 26.328 163.533 25.72C164.157 25.112 164.541 24.36 164.685 23.464L166.557 23.872C166.381 24.64 166.061 25.368 165.597 26.056C165.133 26.744 164.501 27.296 163.701 27.712C162.917 28.128 161.965 28.336 160.845 28.336ZM177.165 28.336C175.981 28.336 174.941 28.088 174.045 27.592C173.149 27.08 172.453 26.368 171.957 25.456C171.461 24.544 171.213 23.488 171.213 22.288V22C171.213 20.784 171.461 19.72 171.957 18.808C172.453 17.896 173.141 17.192 174.021 16.696C174.901 16.184 175.909 15.928 177.045 15.928C178.149 15.928 179.125 16.168 179.973 16.648C180.821 17.112 181.485 17.784 181.965 18.664C182.445 19.544 182.685 20.576 182.685 21.76V22.624H173.109C173.157 23.888 173.565 24.88 174.333 25.6C175.101 26.304 176.061 26.656 177.213 26.656C178.221 26.656 178.997 26.424 179.541 25.96C180.085 25.496 180.501 24.944 180.789 24.304L182.421 25.096C182.181 25.592 181.845 26.088 181.413 26.584C180.997 27.08 180.445 27.496 179.757 27.832C179.085 28.168 178.221 28.336 177.165 28.336ZM173.133 21.064H180.765C180.701 19.976 180.325 19.128 179.637 18.52C178.965 17.912 178.101 17.608 177.045 17.608C175.973 17.608 175.093 17.912 174.405 18.52C173.717 19.128 173.293 19.976 173.133 21.064ZM187.992 28V16.264H189.84V17.728H190.176C190.4 17.312 190.768 16.928 191.28 16.576C191.792 16.224 192.512 16.048 193.44 16.048C194.352 16.048 195.088 16.248 195.648 16.648C196.224 17.048 196.64 17.536 196.896 18.112H197.232C197.504 17.536 197.912 17.048 198.456 16.648C199.016 16.248 199.792 16.048 200.784 16.048C201.568 16.048 202.256 16.208 202.848 16.528C203.44 16.848 203.904 17.312 204.24 17.92C204.592 18.512 204.768 19.224 204.768 20.056V28H202.872V20.224C202.872 19.44 202.64 18.824 202.176 18.376C201.728 17.912 201.096 17.68 200.28 17.68C199.416 17.68 198.704 17.96 198.144 18.52C197.6 19.08 197.328 19.888 197.328 20.944V28H195.432V20.224C195.432 19.44 195.2 18.824 194.736 18.376C194.288 17.912 193.656 17.68 192.84 17.68C191.976 17.68 191.264 17.96 190.704 18.52C190.16 19.08 189.888 19.888 189.888 20.944V28L187.992 28ZM216.016 28.336C214.832 28.336 213.792 28.088 212.896 27.592C212 27.08 211.304 26.368 210.808 25.456C210.312 24.544 210.064 23.488 210.064 22.288V22C210.064 20.784 210.312 19.72 210.808 18.808C211.304 17.896 211.992 17.192 212.872 16.696C213.752 16.184 214.76 15.928 215.896 15.928C217 15.928 217.976 16.168 218.824 16.648C219.672 17.112 220.336 17.784 220.816 18.664C221.296 19.544 221.536 20.576 221.536 21.76V22.624H211.96C212.008 23.888 212.416 24.88 213.184 25.6C213.952 26.304 214.912 26.656 216.064 26.656C217.072 26.656 217.848 26.424 218.392 25.96C218.936 25.496 219.352 24.944 219.64 24.304L221.272 25.096C221.032 25.592 220.696 26.088 220.264 26.584C219.848 27.08 219.296 27.496 218.608 27.832C217.936 28.168 217.072 28.336 216.016 28.336ZM211.984 21.064H219.616C219.552 19.976 219.176 19.128 218.488 18.52C217.816 17.912 216.952 17.608 215.896 17.608C214.824 17.608 213.944 17.912 213.256 18.52C212.568 19.128 212.144 19.976 211.984 21.064ZM226.844 28V16.264L228.692 16.264V18.256H229.028C229.284 17.696 229.716 17.192 230.324 16.744C230.948 16.28 231.86 16.048 233.06 16.048C233.94 16.048 234.724 16.232 235.412 16.6C236.116 16.968 236.676 17.512 237.092 18.232C237.508 18.952 237.716 19.84 237.716 20.896V28H235.82V21.04C235.82 19.872 235.524 19.024 234.932 18.496C234.356 17.968 233.572 17.704 232.58 17.704C231.444 17.704 230.516 18.072 229.796 18.808C229.092 19.544 228.74 20.64 228.74 22.096V28H226.844ZM247.554 28C246.882 28 246.362 27.816 245.994 27.448C245.642 27.08 245.466 26.576 245.466 25.936V17.92H241.938V16.264H245.466V12.088H247.362V16.264H251.202V17.92H247.362V25.648C247.362 26.128 247.594 26.368 248.058 26.368H250.674V28H247.554Z" fill="white"/>
</svg>
