<svg width="148" height="59" viewBox="0 0 148 59" fill="none" xmlns="http://www.w3.org/2000/svg">
<rect x="0.574159" y="0.574159" width="145.971" height="57.4113" rx="28.7057" stroke="white" stroke-width="1.14832"/>
<path d="M29.4786 37.7803V20.9803H36.2706C37.3106 20.9803 38.2226 21.1643 39.0066 21.5323C39.8066 21.8843 40.4306 22.3963 40.8786 23.0683C41.3266 23.7243 41.5506 24.5163 41.5506 25.4443V25.7083C41.5506 26.8123 41.2866 27.6843 40.7586 28.3243C40.2306 28.9643 39.6066 29.3963 38.8866 29.6203V29.9563C39.4626 29.9723 39.9346 30.1643 40.3026 30.5323C40.6866 30.8843 40.8786 31.4203 40.8786 32.1403V37.7803H38.8866V32.3803C38.8866 31.9003 38.7506 31.5323 38.4786 31.2763C38.2226 31.0203 37.8306 30.8923 37.3026 30.8923H31.4946V37.7803H29.4786ZM31.4946 29.0683H36.0786C37.1826 29.0683 38.0306 28.8043 38.6226 28.2763C39.2306 27.7323 39.5346 26.9803 39.5346 26.0203V25.8523C39.5346 24.8923 39.2386 24.1483 38.6466 23.6203C38.0546 23.0763 37.1986 22.8043 36.0786 22.8043H31.4946V29.0683ZM50.0672 38.1163C48.8832 38.1163 47.8432 37.8683 46.9472 37.3723C46.0512 36.8603 45.3552 36.1483 44.8592 35.2363C44.3632 34.3243 44.1152 33.2683 44.1152 32.0683V31.7803C44.1152 30.5643 44.3632 29.5003 44.8592 28.5883C45.3552 27.6763 46.0432 26.9723 46.9232 26.4763C47.8032 25.9643 48.8112 25.7083 49.9472 25.7083C51.0512 25.7083 52.0272 25.9483 52.8752 26.4283C53.7232 26.8923 54.3872 27.5643 54.8672 28.4443C55.3472 29.3243 55.5872 30.3563 55.5872 31.5403V32.4043H46.0112C46.0592 33.6683 46.4672 34.6603 47.2352 35.3803C48.0032 36.0843 48.9632 36.4363 50.1152 36.4363C51.1232 36.4363 51.8992 36.2043 52.4432 35.7403C52.9872 35.2763 53.4032 34.7243 53.6912 34.0843L55.3232 34.8763C55.0832 35.3723 54.7472 35.8683 54.3152 36.3643C53.8992 36.8603 53.3472 37.2763 52.6592 37.6123C51.9872 37.9483 51.1232 38.1163 50.0672 38.1163ZM46.0352 30.8443H53.6672C53.6032 29.7563 53.2272 28.9083 52.5392 28.3003C51.8672 27.6923 51.0032 27.3883 49.9472 27.3883C48.8752 27.3883 47.9952 27.6923 47.3072 28.3003C46.6192 28.9083 46.1952 29.7563 46.0352 30.8443ZM63.6223 38.1163C62.1663 38.1163 60.9343 37.7803 59.9263 37.1083C58.9343 36.4363 58.3343 35.3723 58.1263 33.9163L59.9263 33.5083C60.0543 34.2763 60.2943 34.8843 60.6463 35.3323C60.9983 35.7643 61.4303 36.0763 61.9423 36.2683C62.4703 36.4443 63.0303 36.5323 63.6223 36.5323C64.5023 36.5323 65.1983 36.3563 65.7103 36.0043C66.2223 35.6523 66.4783 35.1803 66.4783 34.5883C66.4783 33.9803 66.2303 33.5563 65.7343 33.3163C65.2543 33.0603 64.5903 32.8523 63.7423 32.6923L62.7583 32.5243C62.0063 32.3963 61.3183 32.1963 60.6943 31.9243C60.0703 31.6523 59.5743 31.2843 59.2063 30.8203C58.8383 30.3563 58.6543 29.7723 58.6543 29.0683C58.6543 28.0123 59.0623 27.1883 59.8783 26.5963C60.6943 26.0043 61.7743 25.7083 63.1183 25.7083C64.4463 25.7083 65.5183 26.0123 66.3343 26.6203C67.1663 27.2123 67.7023 28.0523 67.9423 29.1403L66.1663 29.5963C66.0223 28.7483 65.6783 28.1563 65.1343 27.8203C64.5903 27.4683 63.9183 27.2923 63.1183 27.2923C62.3183 27.2923 61.6863 27.4443 61.2223 27.7483C60.7583 28.0363 60.5263 28.4683 60.5263 29.0443C60.5263 29.6043 60.7423 30.0203 61.1743 30.2923C61.6223 30.5483 62.2143 30.7403 62.9503 30.8683L63.9343 31.0363C64.7663 31.1803 65.5103 31.3803 66.1663 31.6363C66.8383 31.8763 67.3663 32.2283 67.7503 32.6923C68.1503 33.1563 68.3503 33.7643 68.3503 34.5163C68.3503 35.6683 67.9183 36.5563 67.0543 37.1803C66.2063 37.8043 65.0623 38.1163 63.6223 38.1163ZM76.0386 37.9963C75.1906 37.9963 74.4066 37.8123 73.6866 37.4443C72.9826 37.0763 72.4226 36.5323 72.0066 35.8123C71.6066 35.0763 71.4066 34.1883 71.4066 33.1483V26.0443H73.3026V33.0043C73.3026 34.1723 73.5906 35.0203 74.1666 35.5483C74.7586 36.0763 75.5506 36.3403 76.5426 36.3403C77.6626 36.3403 78.5826 35.9723 79.3026 35.2363C80.0226 34.5003 80.3826 33.4043 80.3826 31.9483V26.0443H82.2786V37.7803H80.4306V35.7883H80.0946C79.8386 36.3483 79.3986 36.8603 78.7746 37.3243C78.1506 37.7723 77.2386 37.9963 76.0386 37.9963ZM86.2459 37.7803V26.0443H88.0939V27.5083H88.4299C88.6539 27.0923 89.0219 26.7083 89.5339 26.3563C90.0459 26.0043 90.7659 25.8283 91.6939 25.8283C92.6059 25.8283 93.3419 26.0283 93.9019 26.4283C94.4779 26.8283 94.8939 27.3163 95.1499 27.8923H95.4859C95.7579 27.3163 96.1659 26.8283 96.7099 26.4283C97.2699 26.0283 98.0459 25.8283 99.0379 25.8283C99.8219 25.8283 100.51 25.9883 101.102 26.3083C101.694 26.6283 102.158 27.0923 102.494 27.7003C102.846 28.2923 103.022 29.0043 103.022 29.8363V37.7803H101.126V30.0043C101.126 29.2203 100.894 28.6043 100.43 28.1563C99.9819 27.6923 99.3499 27.4603 98.5339 27.4603C97.6699 27.4603 96.9579 27.7403 96.3979 28.3003C95.8539 28.8603 95.5819 29.6683 95.5819 30.7243V37.7803H93.6859V30.0043C93.6859 29.2203 93.4539 28.6043 92.9899 28.1563C92.5419 27.6923 91.9099 27.4603 91.0939 27.4603C90.2299 27.4603 89.5179 27.7403 88.9579 28.3003C88.4139 28.8603 88.1419 29.6683 88.1419 30.7243V37.7803H86.2459ZM112.27 38.1163C111.086 38.1163 110.046 37.8683 109.15 37.3723C108.254 36.8603 107.558 36.1483 107.062 35.2363C106.566 34.3243 106.318 33.2683 106.318 32.0683V31.7803C106.318 30.5643 106.566 29.5003 107.062 28.5883C107.558 27.6763 108.246 26.9723 109.126 26.4763C110.006 25.9643 111.014 25.7083 112.15 25.7083C113.254 25.7083 114.23 25.9483 115.078 26.4283C115.926 26.8923 116.59 27.5643 117.07 28.4443C117.55 29.3243 117.79 30.3563 117.79 31.5403V32.4043H108.214C108.262 33.6683 108.67 34.6603 109.438 35.3803C110.206 36.0843 111.166 36.4363 112.318 36.4363C113.326 36.4363 114.102 36.2043 114.646 35.7403C115.19 35.2763 115.606 34.7243 115.894 34.0843L117.526 34.8763C117.286 35.3723 116.95 35.8683 116.518 36.3643C116.102 36.8603 115.55 37.2763 114.862 37.6123C114.19 37.9483 113.326 38.1163 112.27 38.1163ZM108.238 30.8443H115.87C115.806 29.7563 115.43 28.9083 114.742 28.3003C114.07 27.6923 113.206 27.3883 112.15 27.3883C111.078 27.3883 110.198 27.6923 109.51 28.3003C108.822 28.9083 108.398 29.7563 108.238 30.8443Z" fill="white"/>
<path d="M27.5586 40.7803H119.11V41.9803H27.5586V40.7803Z" fill="white"/>
<a href="https://a.dropoverapp.com/cloud/download/25daec90-763a-4333-8aa6-27c00db7b213/3d47a7df-4d33-4cba-b9f7-13ba122b956e">
<rect fill="black" fill-opacity="0" y="0.188001" width="91.5518" height="30.624"/>
</a>
</svg>
